<?xml version="1.0" encoding="UTF-8"?>
<svg id="Layer_1" data-name="Layer 1" xmlns="http://www.w3.org/2000/svg" xmlns:xlink="http://www.w3.org/1999/xlink" viewBox="0 0 24 24">
  <defs>
    <style>
      .cls-1 {
        clip-path: url(#clippath);
      }

      .cls-2 {
        fill: none;
      }

      .cls-2, .cls-3 {
        stroke-width: 0px;
      }

      .cls-3 {
        fill: #fff;
      }
    </style>
    <clipPath id="clippath">
      <rect class="cls-2" width="24" height="24"/>
    </clipPath>
  </defs>
  <g class="cls-1">
    <g>
      <path class="cls-3" d="M8.63,14.19c-.58,0-1.06-.47-1.06-1.05v-6.88c0-.58.47-1.05,1.06-1.05s1.06.47,1.06,1.05v6.87c0,.58-.47,1.06-1.06,1.06Z"/>
      <path class="cls-3" d="M7.95,16.65c.74-.34,1.62-.02,1.96.72.34.74.02,1.62-.72,1.96-.74.34-1.62.02-1.96-.72-.34-.74-.02-1.62.72-1.96Z"/>
      <path class="cls-3" d="M15.25,14.31c-.58,0-1.06-.47-1.06-1.05v-6.88c0-.58.47-1.05,1.06-1.05s1.06.47,1.06,1.05v6.87c0,.58-.47,1.06-1.06,1.06Z"/>
      <path class="cls-3" d="M14.57,16.77c.74-.34,1.62-.02,1.96.72.34.74.02,1.62-.72,1.96-.74.34-1.62.02-1.96-.72-.34-.74-.02-1.62.72-1.96Z"/>
    </g>
  </g>
</svg>